<?xml version="1.0" encoding="UTF-8"?><svg id="_1_Landing" xmlns="http://www.w3.org/2000/svg" width="46.95" height="69.66" viewBox="0 0 46.95 69.66"><defs><style>.cls-1{fill:#2e2e2e;}.cls-2{opacity:.93;}</style></defs><g id="footsteps"><path class="cls-1" d="M10.5,22.9c.13-1.47.11-2.98.5-4.41.27-.99.93-1.91,1.25-2.87C13.8,10.86,11.36-2.35,4.03.37-1.32,2.35-.14,14.01.86,18.41c.25,1.11,1.37,5.5,2.45,5.81l7.2-1.32h-.01Z"/><path class="cls-1" d="M11.11,25.65l-7.34,1.7c-.22,3.38,1.37,9.75,5.84,9.04,1.03-.16,1.9-.89,2.42-1.76,1.69-2.85.47-6.27-.91-8.98h-.01Z"/><g class="cls-2"><path class="cls-1" d="M36.52,56.12l7.21,1.28c1.05-.31,2.17-4.73,2.42-5.82,1.1-4.96,2.38-19.36-5.93-18.3-4.64.59-6.42,9.76-6,13.51.22,1.96,1.32,3.34,1.79,5.12.37,1.41.43,2.76.52,4.21h-.01Z"/><path class="cls-1" d="M43.28,60.54l-7.37-1.6c-1.81,2.76-2.95,9.33,1.15,10.55,4.63,1.38,6.53-5.56,6.22-8.95h0Z"/></g></g></svg>