<?xml version="1.0" encoding="UTF-8"?><svg id="_1_Landing" xmlns="http://www.w3.org/2000/svg" width="198.64" height="198.64" viewBox="0 0 198.64 198.64"><defs><style>.cls-1{fill:#1a1a1a;}</style></defs><g id="compass-footsteps"><path class="cls-1" d="M85.36,104.41c.15-1.46.16-2.98.58-4.4.29-.99.97-1.89,1.3-2.84,1.64-4.73-.56-17.98-7.94-15.4-5.38,1.88-4.42,13.56-3.51,17.98.23,1.11,1.27,5.52,2.34,5.86l7.23-1.19h0Z"/><path class="cls-1" d="M85.92,107.18l-7.37,1.56c-.29,3.38,1.19,9.78,5.67,9.15,1.03-.14,1.92-.86,2.45-1.72,1.75-2.82.58-6.26-.74-9h-.01Z"/><path class="cls-1" d="M112.9,103.51l7.19,1.42c1.05-.29,2.26-4.69,2.53-5.78,1.2-4.94,2.74-19.31-5.59-18.4-4.66.51-6.6,9.64-6.25,13.39.18,1.96,1.25,3.36,1.69,5.15.35,1.42.37,2.76.44,4.22h-.01Z"/><path class="cls-1" d="M119.57,108.05l-7.34-1.73c-1.86,2.72-3.12,9.27.95,10.57,4.6,1.46,6.63-5.44,6.39-8.83h0Z"/><path class="cls-1" d="M99.49,198.63h.51v-19.53c-.17,0-.34.01-.51.01v19.52Z"/><path class="cls-1" d="M99.15,0h-.51v19.53c.17,0,.34-.01.51-.01V0Z"/><path class="cls-1" d="M98.64,179.1v19.53h.51v-19.52c-.17,0-.34-.01-.51-.01Z"/><path class="cls-1" d="M100,19.54V.01h-.51v19.52c.17,0,.34.01.51.01Z"/><path class="cls-1" d="M179.1,98.64c0,.17.01.34.01.51h19.52v-.51h-19.53Z"/><path class="cls-1" d="M179.1,100h19.53v-.51h-19.52c0,.17-.01.34-.01.51Z"/><path class="cls-1" d="M19.54,98.64H0v.51h19.52c0-.17.01-.34.01-.51Z"/><path class="cls-1" d="M.01,99.49v.51h19.53c0-.17-.01-.34-.01-.51H.01Z"/><path class="cls-1" d="M99.32,179.12h-.17v19.52h.34v-19.52h-.17Z"/><path class="cls-1" d="M99.32,19.52h.17V0h-.34v19.52h.17Z"/><path class="cls-1" d="M19.52,99.32v-.17H0v.34h19.52v-.17h0Z"/><path class="cls-1" d="M179.12,99.32v.17h19.52v-.34h-19.52v.17h0Z"/><path class="cls-1" d="M35.35,175.29l.26.22,12.55-14.96c-.09-.07-.17-.15-.26-.22l-12.55,14.96Z"/><path class="cls-1" d="M163.29,23.35l-.26-.22-12.55,14.96c.09.07.17.15.26.22l12.55-14.96Z"/><path class="cls-1" d="M23.35,35.35l-.22.26,14.96,12.55c.07-.09.15-.17.22-.26l-14.96-12.55Z"/><path class="cls-1" d="M175.29,163.28l.22-.26-14.95-12.55c-.07.09-.15.17-.22.26l14.96,12.55h-.01Z"/><path class="cls-1" d="M197.15,82.24l-.06-.33-19.23,3.39c.02.11.04.22.06.33l19.23-3.39Z"/><path class="cls-1" d="M1.49,116.4l.06.33,19.23-3.39c-.02-.11-.04-.22-.06-.33l-19.23,3.39Z"/><path class="cls-1" d="M82.24,1.48l-.33.06,3.39,19.23c.11-.02.22-.04.33-.06l-3.39-19.23Z"/><path class="cls-1" d="M116.4,197.15l.33-.06-3.39-19.23c-.11.02-.22.04-.33.06l3.39,19.23Z"/><path class="cls-1" d="M13.4,49.51l-.17.29,16.91,9.76c.06-.1.11-.2.17-.29l-16.91-9.76Z"/><path class="cls-1" d="M185.24,149.12l.17-.29-16.91-9.76c-.06.1-.11.2-.17.29l16.91,9.76Z"/><path class="cls-1" d="M149.13,13.39l-.29-.17-9.76,16.91c.1.06.2.11.3.17l9.76-16.91h-.01Z"/><path class="cls-1" d="M49.52,185.24l.29.17,9.76-16.91c-.1-.06-.2-.11-.3-.17l-9.76,16.91h.01Z"/><path class="cls-1" d="M65.51,5.94l-.32.12,6.67,18.32c.11-.04.22-.07.32-.11l-6.67-18.33h0Z"/><path class="cls-1" d="M133.13,192.7l.32-.12-6.67-18.32c-.11.04-.21.07-.32.11l6.67,18.32h0Z"/><path class="cls-1" d="M192.7,65.51l-.12-.32-18.32,6.67c.04.11.07.22.11.32l18.32-6.67h.01Z"/><path class="cls-1" d="M5.94,133.12l.12.32,18.32-6.67c-.04-.11-.07-.22-.11-.32l-18.33,6.67Z"/><path class="cls-1" d="M65.19,192.58l.32.12,6.67-18.32c-.11-.04-.22-.07-.32-.11l-6.67,18.32h0Z"/><path class="cls-1" d="M133.45,6.05l-.32-.12-6.67,18.32c.11.04.22.07.32.11l6.67-18.32h0Z"/><path class="cls-1" d="M192.59,133.44l.12-.32-18.32-6.67c-.04.11-.07.22-.11.32l18.32,6.67h-.01Z"/><path class="cls-1" d="M6.06,65.19l-.12.32,18.33,6.67c.04-.11.07-.22.11-.32l-18.32-6.67Z"/><path class="cls-1" d="M185.41,49.81l-.17-.29-16.91,9.76c.06.1.11.2.17.29l16.91-9.76Z"/><path class="cls-1" d="M13.23,148.83l.17.29,16.91-9.76c-.06-.1-.11-.2-.17-.29l-16.91,9.76Z"/><path class="cls-1" d="M49.81,13.22l-.29.17,9.76,16.91c.1-.06.2-.11.3-.17l-9.76-16.91h-.01Z"/><path class="cls-1" d="M148.83,185.41l.29-.17-9.76-16.91c-.1.06-.2.11-.3.17l9.76,16.91h.01Z"/><path class="cls-1" d="M197.1,116.73l.06-.33-19.23-3.39c-.02.11-.04.22-.06.33l19.23,3.39Z"/><path class="cls-1" d="M1.55,81.9l-.06.33,19.23,3.39c.02-.11.04-.22.06-.33l-19.23-3.39Z"/><path class="cls-1" d="M116.73,1.54l-.33-.06-3.39,19.23c.11.02.22.04.33.06l3.39-19.23Z"/><path class="cls-1" d="M81.91,197.09l.33.06,3.39-19.23c-.11-.02-.22-.04-.33-.06l-3.39,19.23Z"/><path class="cls-1" d="M163.03,175.5l.26-.22-12.55-14.96c-.09.07-.17.15-.26.22l12.55,14.96Z"/><path class="cls-1" d="M35.61,23.13l-.26.22,12.55,14.96c.09-.07.17-.15.26-.22l-12.55-14.96h0Z"/><path class="cls-1" d="M23.13,163.02l.22.26,14.96-12.55c-.07-.09-.15-.17-.22-.26l-14.96,12.55Z"/><path class="cls-1" d="M175.51,35.61l-.22-.26-14.96,12.55c.07.09.15.17.22.26l14.95-12.55h.01Z"/></g></svg>