<?xml version="1.0" encoding="UTF-8"?><svg id="Layer_1" xmlns="http://www.w3.org/2000/svg" width="20" height="24" viewBox="0 0 20 24"><defs><style>.cls-1{fill:none;stroke:#1a1a1a;stroke-linecap:round;stroke-linejoin:round;stroke-width:1.23px;}</style></defs><path class="cls-1" d="M5.57,13.72V3.21c0-.37.41-.68.91-.68h1.33c.5,0,.91.3.91.68v6.97-3.45h2.58c.42,0,.76.26.76.57v3.03-2.23c0-.32.34-.57.76-.57h1.82c.42,0,.76.26.76.57v3.13-2.33c0-.32.34-.57.76-.57h.76c.29,0,.56.12.69.32l.98,1.51c.05.08.08.16.08.25v4.63c0,.06-.01.11-.03.17l-1.23,3.02c-.05.13-.08.26-.08.4v1.04c0,.44-.48.8-1.07.8H7.9c-.59,0-1.07-.36-1.07-.8v-1.01c0-.15-.06-.3-.17-.43L1.34,12.1c-.13-.14-.19-.31-.19-.49v-.59c0-.49.54-.89,1.2-.89h1.12c.28,0,.54.07.76.2l1.34.82v2.58Z"/></svg>